<mxfile host="app.diagrams.net" modified="2021-12-30T11:22:32.017Z" agent="5.0 (Macintosh; Intel Mac OS X 10_15_7) AppleWebKit/537.36 (KHTML, like Gecko) Chrome/96.0.4664.110 Safari/537.36" etag="KKhoQIOlOIJ7hhWKiMuS" version="16.1.0" type="github">
  <diagram id="qHnpLtpYfm-DR158BGJh" name="Page-1">
    <mxGraphModel dx="2010" dy="1072" grid="1" gridSize="10" guides="1" tooltips="1" connect="1" arrows="1" fold="1" page="1" pageScale="1" pageWidth="827" pageHeight="1169" math="0" shadow="0">
      <root>
        <mxCell id="0" />
        <mxCell id="1" parent="0" />
        <mxCell id="vsbCOCckOQM13yO1Xmf0-38" value="Office Network" style="points=[[0,0],[0.25,0],[0.5,0],[0.75,0],[1,0],[1,0.25],[1,0.5],[1,0.75],[1,1],[0.75,1],[0.5,1],[0.25,1],[0,1],[0,0.75],[0,0.5],[0,0.25]];outlineConnect=0;gradientColor=none;html=1;whiteSpace=wrap;fontSize=12;fontStyle=0;container=1;pointerEvents=0;collapsible=0;recursiveResize=0;shape=mxgraph.aws4.group;grIcon=mxgraph.aws4.group_corporate_data_center;strokeColor=#5A6C86;fillColor=default;verticalAlign=top;align=left;spacingLeft=30;fontColor=#5A6C86;dashed=0;strokeWidth=2;" vertex="1" parent="1">
          <mxGeometry x="120" y="120" width="1040" height="160" as="geometry" />
        </mxCell>
        <mxCell id="vsbCOCckOQM13yO1Xmf0-39" value="&lt;h3&gt;Office FireWall&lt;/h3&gt;" style="sketch=0;aspect=fixed;pointerEvents=1;shadow=0;dashed=0;html=1;strokeColor=none;labelPosition=center;verticalLabelPosition=bottom;verticalAlign=top;align=center;fillColor=#00188D;shape=mxgraph.mscae.enterprise.firewall;fontFamily=Verdana;" vertex="1" parent="vsbCOCckOQM13yO1Xmf0-38">
          <mxGeometry x="510" y="120" width="45.45" height="40" as="geometry" />
        </mxCell>
        <mxCell id="vsbCOCckOQM13yO1Xmf0-35" value="" style="sketch=0;outlineConnect=0;fontColor=#232F3E;gradientColor=none;fillColor=#232F3D;strokeColor=none;dashed=0;verticalLabelPosition=bottom;verticalAlign=top;align=center;html=1;fontSize=12;fontStyle=0;aspect=fixed;pointerEvents=1;shape=mxgraph.aws4.user;" vertex="1" parent="vsbCOCckOQM13yO1Xmf0-38">
          <mxGeometry x="240" y="60" width="40" height="40" as="geometry" />
        </mxCell>
        <mxCell id="vsbCOCckOQM13yO1Xmf0-1" value="AWS Cloud" style="points=[[0,0],[0.25,0],[0.5,0],[0.75,0],[1,0],[1,0.25],[1,0.5],[1,0.75],[1,1],[0.75,1],[0.5,1],[0.25,1],[0,1],[0,0.75],[0,0.5],[0,0.25]];outlineConnect=0;gradientColor=none;html=1;whiteSpace=wrap;fontSize=12;fontStyle=0;container=1;pointerEvents=0;collapsible=0;recursiveResize=0;shape=mxgraph.aws4.group;grIcon=mxgraph.aws4.group_aws_cloud;strokeColor=#232F3E;fillColor=default;verticalAlign=top;align=left;spacingLeft=30;fontColor=#232F3E;dashed=0;strokeWidth=2;" vertex="1" parent="1">
          <mxGeometry x="120" y="320" width="1040" height="640" as="geometry" />
        </mxCell>
        <mxCell id="vsbCOCckOQM13yO1Xmf0-2" value="Test Env VPC" style="points=[[0,0],[0.25,0],[0.5,0],[0.75,0],[1,0],[1,0.25],[1,0.5],[1,0.75],[1,1],[0.75,1],[0.5,1],[0.25,1],[0,1],[0,0.75],[0,0.5],[0,0.25]];outlineConnect=0;gradientColor=none;html=1;whiteSpace=wrap;fontSize=12;fontStyle=0;container=1;pointerEvents=0;collapsible=0;recursiveResize=0;shape=mxgraph.aws4.group;grIcon=mxgraph.aws4.group_vpc;strokeColor=#248814;fillColor=none;verticalAlign=top;align=left;spacingLeft=30;fontColor=#AAB7B8;dashed=0;strokeWidth=2;" vertex="1" parent="vsbCOCckOQM13yO1Xmf0-1">
          <mxGeometry x="40" y="40" width="960" height="560" as="geometry" />
        </mxCell>
        <mxCell id="vsbCOCckOQM13yO1Xmf0-3" value="AZ - B" style="fillColor=#E6E6E6;strokeColor=#147EBA;dashed=1;verticalAlign=top;fontStyle=0;fontColor=#147EBA;strokeWidth=2;fontSize=18;" vertex="1" parent="vsbCOCckOQM13yO1Xmf0-2">
          <mxGeometry x="680" y="120" width="199" height="400" as="geometry" />
        </mxCell>
        <mxCell id="vsbCOCckOQM13yO1Xmf0-4" value="AZ - A" style="fillColor=#E6E6E6;strokeColor=#147EBA;dashed=1;verticalAlign=top;fontStyle=0;fontColor=#147EBA;strokeWidth=2;fontSize=18;" vertex="1" parent="vsbCOCckOQM13yO1Xmf0-2">
          <mxGeometry x="79" y="120" width="441" height="400" as="geometry" />
        </mxCell>
        <mxCell id="vsbCOCckOQM13yO1Xmf0-5" value="Public subnet" style="points=[[0,0],[0.25,0],[0.5,0],[0.75,0],[1,0],[1,0.25],[1,0.5],[1,0.75],[1,1],[0.75,1],[0.5,1],[0.25,1],[0,1],[0,0.75],[0,0.5],[0,0.25]];outlineConnect=0;html=1;whiteSpace=wrap;fontSize=12;fontStyle=0;container=1;pointerEvents=0;collapsible=0;recursiveResize=0;shape=mxgraph.aws4.group;grIcon=mxgraph.aws4.group_security_group;grStroke=0;strokeColor=#4D4D4D;fillColor=#d5e8d4;verticalAlign=top;align=left;spacingLeft=30;dashed=0;strokeWidth=1;" vertex="1" parent="vsbCOCckOQM13yO1Xmf0-2">
          <mxGeometry x="119" y="160" width="361" height="82" as="geometry" />
        </mxCell>
        <mxCell id="vsbCOCckOQM13yO1Xmf0-6" value="ELB" style="sketch=0;outlineConnect=0;fontColor=#232F3E;gradientColor=none;fillColor=#4D27AA;strokeColor=none;dashed=0;verticalLabelPosition=bottom;verticalAlign=top;align=center;html=1;fontSize=12;fontStyle=0;aspect=fixed;pointerEvents=1;shape=mxgraph.aws4.application_load_balancer;" vertex="1" parent="vsbCOCckOQM13yO1Xmf0-5">
          <mxGeometry x="281" y="21" width="40" height="40" as="geometry" />
        </mxCell>
        <mxCell id="vsbCOCckOQM13yO1Xmf0-7" value="Private subnet" style="points=[[0,0],[0.25,0],[0.5,0],[0.75,0],[1,0],[1,0.25],[1,0.5],[1,0.75],[1,1],[0.75,1],[0.5,1],[0.25,1],[0,1],[0,0.75],[0,0.5],[0,0.25]];outlineConnect=0;gradientColor=none;html=1;whiteSpace=wrap;fontSize=12;fontStyle=0;container=1;pointerEvents=0;collapsible=0;recursiveResize=0;shape=mxgraph.aws4.group;grIcon=mxgraph.aws4.group_security_group;grStroke=0;strokeColor=#147EBA;fillColor=#E6F2F8;verticalAlign=top;align=left;spacingLeft=30;fontColor=#147EBA;dashed=0;" vertex="1" parent="vsbCOCckOQM13yO1Xmf0-2">
          <mxGeometry x="119" y="280" width="361" height="80" as="geometry" />
        </mxCell>
        <mxCell id="vsbCOCckOQM13yO1Xmf0-8" value="OpenSwan" style="sketch=0;points=[[0,0,0],[0.25,0,0],[0.5,0,0],[0.75,0,0],[1,0,0],[0,1,0],[0.25,1,0],[0.5,1,0],[0.75,1,0],[1,1,0],[0,0.25,0],[0,0.5,0],[0,0.75,0],[1,0.25,0],[1,0.5,0],[1,0.75,0]];outlineConnect=0;fontColor=#232F3E;gradientColor=#F78E04;gradientDirection=north;fillColor=#D05C17;strokeColor=#ffffff;dashed=0;verticalLabelPosition=bottom;verticalAlign=top;align=center;html=1;fontSize=12;fontStyle=0;aspect=fixed;shape=mxgraph.aws4.resourceIcon;resIcon=mxgraph.aws4.compute;" vertex="1" parent="vsbCOCckOQM13yO1Xmf0-7">
          <mxGeometry x="281" y="28" width="40" height="40" as="geometry" />
        </mxCell>
        <mxCell id="vsbCOCckOQM13yO1Xmf0-9" value="Sensitive subnet" style="points=[[0,0],[0.25,0],[0.5,0],[0.75,0],[1,0],[1,0.25],[1,0.5],[1,0.75],[1,1],[0.75,1],[0.5,1],[0.25,1],[0,1],[0,0.75],[0,0.5],[0,0.25]];outlineConnect=0;html=1;whiteSpace=wrap;fontSize=12;fontStyle=0;container=1;pointerEvents=0;collapsible=0;recursiveResize=0;shape=mxgraph.aws4.group;grIcon=mxgraph.aws4.group_security_group;grStroke=0;strokeColor=#9673a6;fillColor=#e1d5e7;verticalAlign=top;align=left;spacingLeft=30;dashed=0;" vertex="1" parent="vsbCOCckOQM13yO1Xmf0-2">
          <mxGeometry x="119" y="400" width="361" height="80" as="geometry" />
        </mxCell>
        <mxCell id="vsbCOCckOQM13yO1Xmf0-10" value="" style="sketch=0;outlineConnect=0;fontColor=#232F3E;gradientColor=none;fillColor=#2E27AD;strokeColor=none;dashed=0;verticalLabelPosition=bottom;verticalAlign=top;align=center;html=1;fontSize=12;fontStyle=0;aspect=fixed;pointerEvents=1;shape=mxgraph.aws4.rds_instance;" vertex="1" parent="vsbCOCckOQM13yO1Xmf0-9">
          <mxGeometry x="281" y="30" width="40" height="40" as="geometry" />
        </mxCell>
        <mxCell id="vsbCOCckOQM13yO1Xmf0-11" style="edgeStyle=orthogonalEdgeStyle;rounded=0;orthogonalLoop=1;jettySize=auto;html=1;strokeWidth=2;endArrow=none;endFill=0;fillColor=#0050ef;strokeColor=#001DBC;opacity=20;" edge="1" parent="vsbCOCckOQM13yO1Xmf0-2" source="vsbCOCckOQM13yO1Xmf0-17">
          <mxGeometry relative="1" as="geometry">
            <mxPoint x="480" y="230" as="targetPoint" />
            <Array as="points">
              <mxPoint x="540" y="322" />
              <mxPoint x="540" y="230" />
            </Array>
          </mxGeometry>
        </mxCell>
        <mxCell id="vsbCOCckOQM13yO1Xmf0-12" style="edgeStyle=orthogonalEdgeStyle;rounded=0;orthogonalLoop=1;jettySize=auto;html=1;endArrow=none;endFill=0;strokeWidth=2;strokeColor=#001DBC;fillColor=#0050ef;opacity=20;" edge="1" parent="vsbCOCckOQM13yO1Xmf0-2" source="vsbCOCckOQM13yO1Xmf0-17">
          <mxGeometry relative="1" as="geometry">
            <mxPoint x="481" y="323" as="targetPoint" />
            <Array as="points">
              <mxPoint x="510" y="322" />
              <mxPoint x="510" y="322" />
            </Array>
          </mxGeometry>
        </mxCell>
        <mxCell id="vsbCOCckOQM13yO1Xmf0-13" style="edgeStyle=orthogonalEdgeStyle;rounded=0;orthogonalLoop=1;jettySize=auto;html=1;entryX=0.906;entryY=0.75;entryDx=0;entryDy=0;entryPerimeter=0;endArrow=none;endFill=0;strokeWidth=2;strokeColor=#001DBC;fillColor=#0050ef;opacity=20;" edge="1" parent="vsbCOCckOQM13yO1Xmf0-2" source="vsbCOCckOQM13yO1Xmf0-17" target="vsbCOCckOQM13yO1Xmf0-4">
          <mxGeometry relative="1" as="geometry" />
        </mxCell>
        <mxCell id="vsbCOCckOQM13yO1Xmf0-14" style="edgeStyle=orthogonalEdgeStyle;rounded=0;orthogonalLoop=1;jettySize=auto;html=1;entryX=0.125;entryY=0.25;entryDx=0;entryDy=0;entryPerimeter=0;endArrow=none;endFill=0;strokeWidth=2;strokeColor=#001DBC;fillColor=#0050ef;opacity=20;" edge="1" parent="vsbCOCckOQM13yO1Xmf0-2" source="vsbCOCckOQM13yO1Xmf0-17" target="vsbCOCckOQM13yO1Xmf0-3">
          <mxGeometry relative="1" as="geometry" />
        </mxCell>
        <mxCell id="vsbCOCckOQM13yO1Xmf0-15" style="edgeStyle=orthogonalEdgeStyle;rounded=0;orthogonalLoop=1;jettySize=auto;html=1;entryX=0.125;entryY=0.5;entryDx=0;entryDy=0;entryPerimeter=0;endArrow=none;endFill=0;strokeWidth=2;strokeColor=#001DBC;fillColor=#0050ef;opacity=20;" edge="1" parent="vsbCOCckOQM13yO1Xmf0-2" source="vsbCOCckOQM13yO1Xmf0-17" target="vsbCOCckOQM13yO1Xmf0-3">
          <mxGeometry relative="1" as="geometry" />
        </mxCell>
        <mxCell id="vsbCOCckOQM13yO1Xmf0-16" style="edgeStyle=orthogonalEdgeStyle;rounded=0;orthogonalLoop=1;jettySize=auto;html=1;entryX=0.125;entryY=0.75;entryDx=0;entryDy=0;entryPerimeter=0;endArrow=none;endFill=0;strokeWidth=2;strokeColor=#001DBC;fillColor=#0050ef;opacity=20;" edge="1" parent="vsbCOCckOQM13yO1Xmf0-2" source="vsbCOCckOQM13yO1Xmf0-17" target="vsbCOCckOQM13yO1Xmf0-3">
          <mxGeometry relative="1" as="geometry" />
        </mxCell>
        <mxCell id="vsbCOCckOQM13yO1Xmf0-17" value="" style="sketch=0;outlineConnect=0;fontColor=#232F3E;gradientColor=none;fillColor=#4D27AA;strokeColor=none;dashed=0;verticalLabelPosition=bottom;verticalAlign=top;align=center;html=1;fontSize=12;fontStyle=0;aspect=fixed;pointerEvents=1;shape=mxgraph.aws4.route_table;opacity=20;" vertex="1" parent="vsbCOCckOQM13yO1Xmf0-2">
          <mxGeometry x="560" y="282" width="78" height="76" as="geometry" />
        </mxCell>
        <mxCell id="vsbCOCckOQM13yO1Xmf0-18" value="" style="sketch=0;outlineConnect=0;fontColor=#232F3E;gradientColor=none;fillColor=#4D27AA;strokeColor=none;dashed=0;verticalLabelPosition=bottom;verticalAlign=top;align=center;html=1;fontSize=12;fontStyle=0;aspect=fixed;pointerEvents=1;shape=mxgraph.aws4.internet_gateway;" vertex="1" parent="vsbCOCckOQM13yO1Xmf0-2">
          <mxGeometry x="579" width="40" height="40" as="geometry" />
        </mxCell>
        <mxCell id="vsbCOCckOQM13yO1Xmf0-20" value="Public subnet" style="points=[[0,0],[0.25,0],[0.5,0],[0.75,0],[1,0],[1,0.25],[1,0.5],[1,0.75],[1,1],[0.75,1],[0.5,1],[0.25,1],[0,1],[0,0.75],[0,0.5],[0,0.25]];outlineConnect=0;html=1;whiteSpace=wrap;fontSize=12;fontStyle=0;container=1;pointerEvents=0;collapsible=0;recursiveResize=0;shape=mxgraph.aws4.group;grIcon=mxgraph.aws4.group_security_group;grStroke=0;strokeColor=#82b366;fillColor=#d5e8d4;verticalAlign=top;align=left;spacingLeft=30;dashed=0;" vertex="1" parent="vsbCOCckOQM13yO1Xmf0-2">
          <mxGeometry x="720" y="160" width="119" height="82" as="geometry" />
        </mxCell>
        <mxCell id="vsbCOCckOQM13yO1Xmf0-21" value="Private subnet" style="points=[[0,0],[0.25,0],[0.5,0],[0.75,0],[1,0],[1,0.25],[1,0.5],[1,0.75],[1,1],[0.75,1],[0.5,1],[0.25,1],[0,1],[0,0.75],[0,0.5],[0,0.25]];outlineConnect=0;gradientColor=none;html=1;whiteSpace=wrap;fontSize=12;fontStyle=0;container=1;pointerEvents=0;collapsible=0;recursiveResize=0;shape=mxgraph.aws4.group;grIcon=mxgraph.aws4.group_security_group;grStroke=0;strokeColor=#000000;fillColor=#E6F2F8;verticalAlign=top;align=left;spacingLeft=30;fontColor=#147EBA;dashed=0;" vertex="1" parent="vsbCOCckOQM13yO1Xmf0-2">
          <mxGeometry x="720" y="280" width="119" height="80" as="geometry" />
        </mxCell>
        <mxCell id="vsbCOCckOQM13yO1Xmf0-23" value="Sensitive&amp;nbsp;subnet" style="points=[[0,0],[0.25,0],[0.5,0],[0.75,0],[1,0],[1,0.25],[1,0.5],[1,0.75],[1,1],[0.75,1],[0.5,1],[0.25,1],[0,1],[0,0.75],[0,0.5],[0,0.25]];outlineConnect=0;html=1;whiteSpace=wrap;fontSize=12;fontStyle=0;container=1;pointerEvents=0;collapsible=0;recursiveResize=0;shape=mxgraph.aws4.group;grIcon=mxgraph.aws4.group_security_group;grStroke=0;strokeColor=#9673a6;fillColor=#e1d5e7;verticalAlign=top;align=left;spacingLeft=30;dashed=0;" vertex="1" parent="vsbCOCckOQM13yO1Xmf0-2">
          <mxGeometry x="720" y="400" width="119" height="80" as="geometry" />
        </mxCell>
        <mxCell id="vsbCOCckOQM13yO1Xmf0-37" value="" style="sketch=0;outlineConnect=0;fontColor=#232F3E;gradientColor=none;fillColor=#2E27AD;strokeColor=none;dashed=0;verticalLabelPosition=bottom;verticalAlign=top;align=center;html=1;fontSize=12;fontStyle=0;aspect=fixed;pointerEvents=1;shape=mxgraph.aws4.rds_instance;opacity=80;" vertex="1" parent="vsbCOCckOQM13yO1Xmf0-23">
          <mxGeometry x="39.5" y="30" width="40" height="40" as="geometry" />
        </mxCell>
        <mxCell id="vsbCOCckOQM13yO1Xmf0-24" style="edgeStyle=orthogonalEdgeStyle;rounded=1;orthogonalLoop=1;jettySize=auto;html=1;strokeWidth=5;startArrow=none;startFill=0;endArrow=none;endFill=0;strokeColor=#1BF322;dashed=1;fillColor=#008a00;dashPattern=1 1;" edge="1" parent="vsbCOCckOQM13yO1Xmf0-2" source="vsbCOCckOQM13yO1Xmf0-6" target="vsbCOCckOQM13yO1Xmf0-18">
          <mxGeometry relative="1" as="geometry">
            <Array as="points">
              <mxPoint x="420" y="70" />
              <mxPoint x="599" y="70" />
            </Array>
          </mxGeometry>
        </mxCell>
        <mxCell id="vsbCOCckOQM13yO1Xmf0-25" style="edgeStyle=orthogonalEdgeStyle;rounded=1;orthogonalLoop=1;jettySize=auto;html=1;startArrow=none;startFill=0;endArrow=none;endFill=0;strokeWidth=5;strokeColor=#1BF322;dashed=1;fillColor=#008a00;dashPattern=1 1;" edge="1" parent="vsbCOCckOQM13yO1Xmf0-2" source="vsbCOCckOQM13yO1Xmf0-6" target="vsbCOCckOQM13yO1Xmf0-8">
          <mxGeometry relative="1" as="geometry">
            <Array as="points">
              <mxPoint x="600" y="201" />
              <mxPoint x="600" y="260" />
              <mxPoint x="420" y="260" />
            </Array>
          </mxGeometry>
        </mxCell>
        <mxCell id="vsbCOCckOQM13yO1Xmf0-27" value="EKS" style="sketch=0;points=[[0,0,0],[0.25,0,0],[0.5,0,0],[0.75,0,0],[1,0,0],[0,1,0],[0.25,1,0],[0.5,1,0],[0.75,1,0],[1,1,0],[0,0.25,0],[0,0.5,0],[0,0.75,0],[1,0.25,0],[1,0.5,0],[1,0.75,0]];outlineConnect=0;fontColor=#232F3E;gradientColor=#F78E04;gradientDirection=north;fillColor=#D05C17;strokeColor=#ffffff;dashed=0;verticalLabelPosition=bottom;verticalAlign=top;align=center;html=1;fontSize=12;fontStyle=0;aspect=fixed;shape=mxgraph.aws4.resourceIcon;resIcon=mxgraph.aws4.eks;" vertex="1" parent="vsbCOCckOQM13yO1Xmf0-2">
          <mxGeometry x="279.5" y="308" width="40" height="40" as="geometry" />
        </mxCell>
        <mxCell id="vsbCOCckOQM13yO1Xmf0-29" style="edgeStyle=orthogonalEdgeStyle;rounded=1;orthogonalLoop=1;jettySize=auto;html=1;startArrow=none;startFill=0;endArrow=none;endFill=0;strokeWidth=5;strokeColor=#1BF322;dashed=1;fillColor=#008a00;dashPattern=1 1;" edge="1" parent="vsbCOCckOQM13yO1Xmf0-2" source="vsbCOCckOQM13yO1Xmf0-18" target="vsbCOCckOQM13yO1Xmf0-31">
          <mxGeometry relative="1" as="geometry">
            <Array as="points">
              <mxPoint x="599" y="70" />
              <mxPoint x="780" y="70" />
            </Array>
          </mxGeometry>
        </mxCell>
        <mxCell id="vsbCOCckOQM13yO1Xmf0-30" style="edgeStyle=orthogonalEdgeStyle;rounded=1;orthogonalLoop=1;jettySize=auto;html=1;startArrow=none;startFill=0;endArrow=none;endFill=0;strokeWidth=5;entryX=0.5;entryY=0;entryDx=0;entryDy=0;entryPerimeter=0;strokeColor=#1BF322;dashed=1;fillColor=#008a00;dashPattern=1 1;" edge="1" parent="vsbCOCckOQM13yO1Xmf0-2" source="vsbCOCckOQM13yO1Xmf0-31" target="vsbCOCckOQM13yO1Xmf0-8">
          <mxGeometry relative="1" as="geometry">
            <Array as="points">
              <mxPoint x="600" y="201" />
              <mxPoint x="600" y="260" />
              <mxPoint x="420" y="260" />
            </Array>
            <mxPoint x="420" y="300" as="targetPoint" />
          </mxGeometry>
        </mxCell>
        <mxCell id="vsbCOCckOQM13yO1Xmf0-31" value="ELB" style="sketch=0;outlineConnect=0;fontColor=#232F3E;gradientColor=none;fillColor=#4D27AA;strokeColor=none;dashed=0;verticalLabelPosition=bottom;verticalAlign=top;align=center;html=1;fontSize=12;fontStyle=0;aspect=fixed;pointerEvents=1;shape=mxgraph.aws4.application_load_balancer;" vertex="1" parent="vsbCOCckOQM13yO1Xmf0-2">
          <mxGeometry x="759.5" y="181" width="40" height="40" as="geometry" />
        </mxCell>
        <mxCell id="vsbCOCckOQM13yO1Xmf0-36" value="EKS" style="sketch=0;points=[[0,0,0],[0.25,0,0],[0.5,0,0],[0.75,0,0],[1,0,0],[0,1,0],[0.25,1,0],[0.5,1,0],[0.75,1,0],[1,1,0],[0,0.25,0],[0,0.5,0],[0,0.75,0],[1,0.25,0],[1,0.5,0],[1,0.75,0]];outlineConnect=0;fontColor=#232F3E;gradientColor=#F78E04;gradientDirection=north;fillColor=#D05C17;strokeColor=#ffffff;dashed=0;verticalLabelPosition=bottom;verticalAlign=top;align=center;html=1;fontSize=12;fontStyle=0;aspect=fixed;shape=mxgraph.aws4.resourceIcon;resIcon=mxgraph.aws4.eks;opacity=70;" vertex="1" parent="vsbCOCckOQM13yO1Xmf0-2">
          <mxGeometry x="759.5" y="308" width="40" height="40" as="geometry" />
        </mxCell>
        <mxCell id="vsbCOCckOQM13yO1Xmf0-40" style="edgeStyle=orthogonalEdgeStyle;rounded=1;orthogonalLoop=1;jettySize=auto;html=1;startArrow=none;startFill=0;endFill=0;strokeWidth=5;dashed=1;fillColor=#008a00;strokeColor=#1BF322;endArrow=none;dashPattern=1 1;" edge="1" parent="1" source="vsbCOCckOQM13yO1Xmf0-39" target="vsbCOCckOQM13yO1Xmf0-18">
          <mxGeometry relative="1" as="geometry" />
        </mxCell>
        <mxCell id="vsbCOCckOQM13yO1Xmf0-41" value="P2P VPN&amp;nbsp;" style="edgeLabel;html=1;align=center;verticalAlign=middle;resizable=0;points=[];fontFamily=Verdana;fontSize=23;" vertex="1" connectable="0" parent="vsbCOCckOQM13yO1Xmf0-40">
          <mxGeometry x="-0.3584" y="1" relative="1" as="geometry">
            <mxPoint x="76" y="-9" as="offset" />
          </mxGeometry>
        </mxCell>
        <mxCell id="vsbCOCckOQM13yO1Xmf0-34" style="edgeStyle=orthogonalEdgeStyle;rounded=1;orthogonalLoop=1;jettySize=auto;html=1;startArrow=none;startFill=0;endArrow=classic;endFill=1;strokeWidth=4;curved=1;fillColor=#e51400;strokeColor=#FF3333;" edge="1" parent="1" source="vsbCOCckOQM13yO1Xmf0-35" target="vsbCOCckOQM13yO1Xmf0-37">
          <mxGeometry relative="1" as="geometry">
            <mxPoint x="510" y="210" as="targetPoint" />
            <Array as="points">
              <mxPoint x="500" y="200" />
              <mxPoint x="500" y="260" />
              <mxPoint x="750" y="260" />
              <mxPoint x="750" y="440" />
              <mxPoint x="580" y="440" />
              <mxPoint x="580" y="770" />
              <mxPoint x="940" y="770" />
            </Array>
          </mxGeometry>
        </mxCell>
      </root>
    </mxGraphModel>
  </diagram>
</mxfile>
